# xmcd
#
# Track frame offsets: 
#        150
#        20786
#        31833
#        56560
#        79587
#        102471
#        120542
#        137359
#        155349
#        230866
#        256127
#        284643
#        314504
#
# Disc length: 4299 seconds
#
# Revision: 0
# Processed by: cddbd v1.5.1PL0 Copyright (c) Steve Scherf et al.
# Submitted via: ExactAudioCopy v0.90b4
#
DISCID=b110c90d
DTITLE=Bobby Byrd - Live in the Stuffenbau
DYEAR=1991
DGENRE=Soul
TTITLE0=Hang Up We Don't Need
TTITLE1=Hot Pants I'm Coming, Coming, I'm Coming
TTITLE2=Back from the Dead
TTITLE3=Try Me
TTITLE4=I Need Help (I Can't Do It All Alone)
TTITLE5=Get Involved
TTITLE6=(Get Up I Feel Like Being A) Sex Machine
TTITLE7=Keep on Doin' What You're Doin'
TTITLE8=I Know You Got Soul - Super Good - Too Tough for Mr Biig Stuff
TTITLE8=Gotta Have A Mother For You
TTITLE9=It's a Man's, Man's, Man's World
TTITLE10=Respect
TTITLE11=Free
TTITLE12=Funky Finish
EXTD=
EXTT0=
EXTT1=
EXTT2=
EXTT3=
EXTT4=
EXTT5=
EXTT6=
EXTT7=
EXTT8=
EXTT9=
EXTT10=
EXTT11=
EXTT12=
PLAYORDER=
